<svg width="32" height="32" viewBox="0 0 32 32" fill="none" xmlns="http://www.w3.org/2000/svg">
<path d="M16 32C24.8366 32 32 24.8366 32 16C32 7.16344 24.8366 0 16 0C7.16344 0 0 7.16344 0 16C0 24.8366 7.16344 32 16 32Z" fill="#07CAEE"/>
<path d="M24.409 10.3722C24.409 9.75056 24.0491 9.19432 23.4601 8.96528C22.8712 8.73624 22.2168 8.86712 21.7914 9.29248L9.03069 22.0532C8.89981 22.1841 8.73621 22.1514 8.67077 22.1187C8.60533 22.0859 8.47445 22.0205 8.47445 21.8242L8.50717 17.0144L11.8773 13.9387C11.8773 13.9387 11.8773 13.906 11.91 13.906L13.3824 14.8876C13.6115 15.0512 13.9059 14.9857 14.0695 14.7567C14.2331 14.5277 14.1677 14.2332 13.9387 14.0696L9.12885 10.863C8.83437 10.6667 8.44173 10.634 8.11453 10.7976C7.78733 10.9612 7.59101 11.2884 7.59101 11.681L7.52557 21.8569C7.52557 22.3804 7.82005 22.8385 8.34357 23.0675C8.50717 23.133 8.67077 23.1657 8.83437 23.1657C9.16157 23.1657 9.48876 23.0348 9.75052 22.7731L22.5113 10.0123C22.773 9.78328 23.0348 9.84871 23.1329 9.88143C23.1984 9.91415 23.4929 10.045 23.4929 10.405L23.591 20.4499C23.591 20.679 23.4274 20.7771 23.362 20.8099C23.2965 20.8426 23.1002 20.908 22.9366 20.7444L19.043 17.407C18.8466 17.2434 18.5194 17.2434 18.3558 17.4397C18.1922 17.636 18.1922 17.9632 18.3886 18.1268L22.1841 21.4315C22.6094 21.8242 23.1657 21.8896 23.6892 21.6933C24.2127 21.4643 24.5072 20.9735 24.5072 20.4172L24.409 10.3722ZM8.53989 11.681L11.0593 13.3497L8.50717 15.6728L8.53989 11.681Z" fill="white"/>
</svg>
